<?xml version="1.0"?>
<svg xmlns="http://www.w3.org/2000/svg" xmlns:xlink="http://www.w3.org/1999/xlink" xmlns:svgjs="http://svgjs.com/svgjs" version="1.1" width="512" height="512" x="0" y="0" viewBox="0 0 24 24" style="enable-background:new 0 0 512 512" xml:space="preserve" class=""><g><path xmlns="http://www.w3.org/2000/svg" d="m20.25 9.5h-12.5c-.41 0-.75.34-.75.75v7.05c.83.33 1.52.93 1.96 1.7h11.29c.41 0 .75-.34.75-.75v-8c0-.41-.34-.75-.75-.75zm-2 6.5h-3c-.41 0-.75-.34-.75-.75s.34-.75.75-.75h3c.41 0 .75.34.75.75s-.34.75-.75.75z" fill="#7cbd1e" data-original="#000000" style="" class=""/><path xmlns="http://www.w3.org/2000/svg" d="m16.25 0h-8.5c-.414 0-.75.336-.75.75v7c0 .414.336.75.75.75h8.5c.414 0 .75-.336.75-.75v-7c0-.414-.336-.75-.75-.75zm-2 7h-2c-.414 0-.75-.336-.75-.75s.336-.75.75-.75h2c.414 0 .75.336.75.75s-.336.75-.75.75z" fill="#7cbd1e" data-original="#000000" style="" class=""/><path xmlns="http://www.w3.org/2000/svg" d="m23.666 22.254-1.344-1.199c-.571-.672-1.398-1.055-2.283-1.055h-11.722c-.359-1.01-1.236-1.769-2.317-1.952v-16.008c0-1.092-.889-1.989-1.977-2l-3.009-.04c-.005 0-.01 0-.014 0-.546 0-.992.439-1 .987-.007.552.435 1.006.986 1.013l3.014.04v16.374c-.892.52-1.5 1.477-1.5 2.583 0 1.654 1.346 3 3 3 1.301 0 2.4-.837 2.815-1.997h11.724c.305 0 .59.137.781.376.034.043.073.083.114.121l1.399 1.25c.191.169.43.253.667.253.274 0 .549-.113.746-.334.367-.412.332-1.044-.08-1.412z" fill="#7cbd1e" data-original="#000000" style="" class=""/></g></svg>
